<svg xmlns="http://www.w3.org/2000/svg" xmlns:xlink="http://www.w3.org/1999/xlink" version="1.1" id="Layer_1" x="0px" y="0px" style="enable-background:new 0 0 442.4 442.4;" xml:space="preserve" viewBox="167.29 119.43 105.82 115.57"><path style="fill-rule:evenodd;clip-rule:evenodd;fill:#10B981;" d="M270.95,167.04c-2.95,14.7-6.41,24.37-12.23,35.42c-11.22,21.35-28.47,22.5-36.9,32.54  c1.06-10.4,12.54-17.91,16.37-20.3c-1.6,0.68-5.98,0.26-9.51,2.22c11.35-7.91,17.58-15.32,19.91-25.14  c-33.64,7.77-60.52-1.82-76.26-21.27c12.33,7.95,31.74,13.83,51.98,13.83c-2.7-1.39-6.46-3.92-9.45-6.23  C231.55,179.65,251.34,174.51,270.95,167.04"></path><path style="fill-rule:evenodd;clip-rule:evenodd;fill:#374151;" d="M167.67,154.23c-0.66-8.25-0.48-15.64,0.65-24.74c36.75-13.41,67.01-13.41,103.75,0  c1.24,10.01,1.35,18.23,0.43,27.21l-22.27-7.88l-3.48-14.78c-11.09-3.8-23.14-5.14-35.25-4.54l-2.96,4.33l16.99,11.93l-18.15-6.54  l-26.6,3.16c22.05,18.35,46.1,24.72,71.24,24.49C223.69,171.89,195.45,172.62,167.67,154.23"></path><path style="fill-rule:evenodd;clip-rule:evenodd;fill:#374151;" d="M219.7,217.06l-7.58-6.16l-5.29,3.94L219.7,217.06z M202.59,214.04l19.18-14.28l-26.87,9.38l3.68-5.04  c-0.49-1.44-0.95-2.94-1.41-4.5c-8-3.58-17.77-10.69-23.96-18.67c2.16,6.6,5.54,14.94,8.11,20.11c3.7,7.44,7.89,11.97,12.45,16.01  c4.24,3.76,12.69,7.78,18.92,12.16C210.64,222.91,207.06,218.6,202.59,214.04z"></path></svg>